<?xml version="1.0" encoding="UTF-8" standalone="no"?>
<!-- Created with Inkscape (http://www.inkscape.org/) -->

<svg
   xmlns:dc="http://purl.org/dc/elements/1.1/"
   xmlns:cc="http://creativecommons.org/ns#"
   xmlns:rdf="http://www.w3.org/1999/02/22-rdf-syntax-ns#"
   xmlns:svg="http://www.w3.org/2000/svg"
   xmlns="http://www.w3.org/2000/svg"
   xmlns:sodipodi="http://sodipodi.sourceforge.net/DTD/sodipodi-0.dtd"
   xmlns:inkscape="http://www.inkscape.org/namespaces/inkscape"
   width="167.70288mm"
   height="130.88121mm"
   viewBox="0 0 167.70288 130.88121"
   version="1.1"
   id="svg8"
   inkscape:version="1.0.1 (3bc2e813f5, 2020-09-07)"
   sodipodi:docname="crop.svg">
  <defs
     id="defs2" />
  <sodipodi:namedview
     id="base"
     pagecolor="#ffffff"
     bordercolor="#666666"
     borderopacity="1.0"
     inkscape:pageopacity="0.0"
     inkscape:pageshadow="2"
     inkscape:zoom="1.979899"
     inkscape:cx="212.41441"
     inkscape:cy="365.4371"
     inkscape:document-units="mm"
     inkscape:current-layer="layer1"
     inkscape:document-rotation="0"
     showgrid="true"
     inkscape:window-width="2560"
     inkscape:window-height="1403"
     inkscape:window-x="0"
     inkscape:window-y="0"
     inkscape:window-maximized="1">
    <inkscape:grid
       type="xygrid"
       id="grid1402"
       originx="-27.251827"
       originy="-11.220167" />
  </sodipodi:namedview>
  <metadata
     id="metadata5">
    <rdf:RDF>
      <cc:Work
         rdf:about="">
        <dc:format>image/svg+xml</dc:format>
        <dc:type
           rdf:resource="http://purl.org/dc/dcmitype/StillImage" />
        <dc:title></dc:title>
      </cc:Work>
    </rdf:RDF>
  </metadata>
  <g
     inkscape:label="Layer 1"
     inkscape:groupmode="layer"
     id="layer1"
     transform="translate(-27.251828,-11.220167)">
    <path
       style="fill:none;stroke:#000000;stroke-width:0.264583px;stroke-linecap:butt;stroke-linejoin:miter;stroke-opacity:1"
       d="m 27.78125,17.197916 c 0.197987,-0.217514 0.364183,-0.46893 0.59396,-0.652544 0.412356,-0.329511 8.132154,-0.914423 9.059032,-0.848071 2.060588,0.14751 3.991295,0.88116 6.065742,0.947845 7.029127,0.225958 14.055717,-0.665961 21.063828,-0.249436 6.468846,0.384475 12.742315,1.183021 19.258349,1.022677 5.643276,-0.138869 11.137365,-1.884113 16.771869,-2.145126 2.58833,-0.119902 5.28106,-0.316157 7.87122,-0.149658 2.34288,0.150604 4.57795,0.815528 6.96848,0.748298 4.96451,-0.139618 9.92149,-0.47024 14.88721,-0.623582 2.20558,-0.06811 4.38844,0.208396 6.58839,0.149662 1.48612,-0.03968 2.96236,-0.412075 4.45033,-0.498867 2.4329,-0.141911 4.85115,-0.04989 7.28523,-0.04989 5.45261,0 10.85513,-0.829953 16.29675,-0.972788 4.60344,-0.120833 9.18953,-0.04989 13.79443,-0.04989 2.66044,0 5.27088,-0.548402 7.85538,-1.122446 1.11185,-0.246953 2.20528,-0.576215 3.31002,-0.848072 0.44519,-0.109552 1.33035,-0.80768 1.33035,-0.349209 0,0.520855 -0.38397,0.670164 -0.73182,0.399428"
       id="path1412" />
    <path
       style="fill:none;stroke:#000000;stroke-width:0.264583px;stroke-linecap:butt;stroke-linejoin:miter;stroke-opacity:1"
       d="m 191.82291,11.90625 c -2.74738,7.535682 1.04375,15.875359 1.94291,23.471319 0.4859,4.104796 0.12199,8.322228 0.15837,12.446709 0.0654,7.420113 -0.44416,14.827123 -0.36427,22.249432 0.11985,11.134558 0.44345,22.293735 0.44345,33.42403 0,6.91417 -0.74623,13.78559 -0.36425,20.70295 0.2062,3.73409 0.42173,7.4473 0.72851,11.1746 0.0734,0.8916 0.19043,1.77633 0.25341,2.66893 0.0305,0.43243 0.36811,1.63373 0.095,1.29705 -0.10508,-0.12954 -0.16487,-0.29001 -0.24731,-0.43502"
       id="path1414" />
    <path
       style="fill:none;stroke:#000000;stroke-width:0.264583px;stroke-linecap:butt;stroke-linejoin:miter;stroke-opacity:1"
       d="m 27.78125,17.197916 c 0.145195,0.106748 0.333912,0.171452 0.435586,0.320244 0.02911,0.04259 -0.125391,0.492682 -0.142536,0.573698 -0.253389,1.197249 -0.438709,2.636366 -0.300911,3.866212 0.548031,4.89118 0.75452,9.710274 0.633497,14.666663 -0.05519,2.260071 -0.40672,4.503952 -0.490961,6.759641 -0.279987,7.497337 -0.26924,15.019732 -0.26924,22.523802 0,6.802448 0.613082,13.679971 0.253402,20.478459 -0.189949,3.590268 -0.580567,7.149544 -0.506801,10.750568 0.119285,5.822957 0.808548,11.653797 0.966089,17.485257 0.197268,7.30205 0.221723,14.65281 0.221723,21.95011 0,0.79677 -0.176278,5.10968 0.523068,4.97951 5.201715,-0.11958 10.54839,-1.03848 15.805353,-0.87614 4.684794,0.14467 9.336076,1.15833 14.031992,1.27211 5.828844,0.14122 11.550201,-0.43754 17.262832,-1.47165 8.765113,-1.58668 14.966786,1.67244 23.423603,1.4467 3.642354,-0.0972 7.033774,-1.47504 10.626934,-1.72108 7.29699,-0.49966 14.97059,-0.43365 22.26748,0 2.15215,0.1279 4.21864,0.48629 6.39833,0.44898 2.03158,-0.0348 4.01159,-0.49268 6.03407,-0.62358 4.13425,-0.26757 8.35606,-0.54876 12.49575,-0.54876 4.65116,0 9.34103,-0.13711 13.98449,0.14967 3.02469,0.1868 5.97292,0.82721 9.02735,0.7483 2.25331,-0.0582 4.53448,0.27116 6.77844,0.0748 1.11284,-0.0974 2.25167,-0.57371 3.35754,-0.57371 0.94182,0 1.89725,-0.0632 2.81907,-0.22448 0.59308,-0.10378 1.67716,-0.74974 1.05135,-0.74702"
       id="path1418" />
    <path
       style="fill:none;stroke:#000000;stroke-width:0.264583px;stroke-linecap:butt;stroke-linejoin:miter;stroke-opacity:1"
       d="m 132.29166,91.281249 c -1.13783,-1.193088 -0.13153,-0.366938 -0.68788,-0.147863 -0.0918,0.03616 0.09,-1.428464 0.14254,-2.668936 0.0845,-1.994607 0.0514,-4.073036 -0.0792,-6.061221 -0.30892,-4.704164 0.0889,-9.435205 0.15839,-14.142854 0.0563,-3.813033 -0.27923,-7.658206 -0.34843,-11.473929 -0.0796,-4.388908 0.0361,-8.734959 -0.22172,-13.120179 -0.11564,-1.966595 -1.13247,-13.012161 -2.18557,-14.11791 -0.31867,-0.334608 -2.11098,0 -2.54984,0 -5.58639,0 -11.0689,0.279318 -16.64516,0.498866 -6.73346,0.265108 -13.606206,-0.761174 -20.335306,-1.04762 -7.216807,-0.307205 -14.683095,0.311848 -21.887368,0.7483 -1.648434,0.09986 -3.274449,0.585364 -4.925449,0.698413 C 55.990468,30.907569 48.87864,29.79475 42.333333,31.75 c -0.08119,11.643716 0.692106,23.284887 0.849904,34.963885 0.05078,3.758557 0.50701,7.513833 0.395937,11.274381 -0.05056,1.71173 -0.865867,12.916758 -0.364257,13.419495 0.886624,0.888617 6.477815,-0.443096 7.887053,-0.473921 1.656474,-0.03623 3.301457,0.32886 4.941289,0.448979 2.415956,0.17697 4.850155,0.698409 7.285231,0.698409 3.463362,0 6.933723,-0.865094 10.421049,-0.972783 5.713295,-0.176428 11.422697,0.603676 17.120298,0.224489 4.428686,-0.294738 8.679832,-1.565452 13.176763,-1.396828 1.18793,0.04454 2.18533,0.600918 3.31003,0.848072 2.56505,0.563677 5.15122,1.099502 7.74452,1.496597 4.56777,0.699434 6.71945,-0.432576 11.05455,-0.947841 1.81039,-0.21518 4.78985,0.33335 6.13596,-0.05168 z"
       id="path1420" />
    <text
       xml:space="preserve"
       style="font-style:normal;font-weight:normal;font-size:7.05556px;line-height:1.25;font-family:sans-serif;fill:#000000;fill-opacity:1;stroke:none;stroke-width:0.264583"
       x="82.020836"
       y="97.895836"
       id="text1424"><tspan
         sodipodi:role="line"
         id="tspan1422"
         x="82.020836"
         y="97.895836"
         style="font-size:7.05556px;stroke-width:0.264583" /></text>
    <text
       xml:space="preserve"
       style="font-style:normal;font-weight:normal;font-size:5.29167px;line-height:1.25;font-family:sans-serif;fill:#000000;fill-opacity:1;stroke:none;stroke-width:0.264583"
       x="79.375"
       y="100.54166"
       id="text1428"><tspan
         sodipodi:role="line"
         id="tspan1426"
         x="79.375"
         y="100.54166"
         style="font-size:5.29167px;stroke-width:0.264583" /></text>
    <text
       xml:space="preserve"
       style="font-style:normal;font-weight:normal;font-size:3.96875px;line-height:1.25;font-family:sans-serif;fill:#000000;fill-opacity:1;stroke:none;stroke-width:0.264583"
       x="74.083336"
       y="97.895836"
       id="text1432"><tspan
         sodipodi:role="line"
         id="tspan1430"
         x="74.083336"
         y="97.895836"
         style="font-size:3.96875px;stroke-width:0.264583">   2560</tspan></text>
    <text
       xml:space="preserve"
       style="font-style:normal;font-weight:normal;font-size:3.96875px;line-height:1.25;font-family:sans-serif;fill:#000000;fill-opacity:1;stroke:none;stroke-width:0.264583"
       x="134.9375"
       y="63.5"
       id="text1436"><tspan
         sodipodi:role="line"
         id="tspan1434"
         x="134.9375"
         y="63.5"
         style="font-size:3.96875px;stroke-width:0.264583">1440</tspan></text>
    <text
       xml:space="preserve"
       style="font-style:normal;font-weight:normal;font-size:10.5833px;line-height:1.25;font-family:sans-serif;fill:#000000;fill-opacity:1;stroke:none;stroke-width:0.264583"
       x="74.083336"
       y="23.8125"
       id="text1440"><tspan
         sodipodi:role="line"
         id="tspan1438"
         x="74.083336"
         y="23.8125"
         style="stroke-width:0.264583" /></text>
    <text
       xml:space="preserve"
       style="font-size:3.96875px;line-height:1.25;font-family:sans-serif;stroke-width:0.264583"
       x="85.233978"
       y="24.726198"
       id="text1444"><tspan
         sodipodi:role="line"
         id="tspan1442"
         x="85.233978"
         y="24.726198"
         style="stroke-width:0.264583">10</tspan></text>
    <text
       xml:space="preserve"
       style="font-size:3.96875px;line-height:1.25;font-family:sans-serif;stroke-width:0.264583"
       x="33.08588"
       y="60.724789"
       id="text1448"><tspan
         sodipodi:role="line"
         id="tspan1446"
         x="33.08588"
         y="60.724789"
         style="stroke-width:0.264583">10</tspan></text>
    <text
       xml:space="preserve"
       style="font-size:3.96875px;line-height:1.25;font-family:sans-serif;stroke-width:0.264583"
       x="161.39583"
       y="132.29167"
       id="text1462"><tspan
         sodipodi:role="line"
         id="tspan1460"
         x="161.39583"
         y="132.29167"
         style="stroke-width:0.264583">in.png</tspan></text>
    <text
       xml:space="preserve"
       style="font-size:3.96875px;line-height:1.25;font-family:sans-serif;stroke-width:0.264583"
       x="82.020836"
       y="66.145836"
       id="text1466"><tspan
         sodipodi:role="line"
         id="tspan1464"
         x="82.020836"
         y="66.145836"
         style="stroke-width:0.264583">out.png</tspan></text>
    <path
       style="fill:none;stroke:#000000;stroke-width:0.264583px;stroke-linecap:butt;stroke-linejoin:miter;stroke-opacity:1"
       d="m 97.895842,27.78125 c 0.04614,0.203038 0.09228,0.406077 0.13843,0.609115 0.0026,0.02494 0.0027,0.0503 0.0079,0.07483 0.01635,0.07728 -0.0029,-0.158034 0,-0.236964 0.01178,-0.315404 0.03159,-0.63247 0.03959,-0.947843 0.02214,-0.872468 -0.07918,-1.745764 -0.07918,-2.619049 0,-1.618305 -0.02295,-3.258229 -0.08711,-4.876416 -0.02217,-0.559322 -0.351319,-1.73509 -0.182123,-2.244898 0.03976,-0.119818 0.108323,-0.228072 0.162483,-0.342109 -0.355688,0.36729 -0.40656,0.673661 -0.526749,1.115352 -0.09113,0.334918 -0.221315,0.653826 -0.356337,0.97279 -0.06462,0.152649 -0.163646,0.606968 -0.213813,0.448978 -0.0023,-0.0074 1.563076,-3.205215 1.06111,-3.205215 -0.28639,0 0.649159,2.581199 0.776042,2.880953 0.100119,0.236524 0.216966,0.465154 0.324666,0.698411 0.01595,0.03454 0.09039,0.11479 0.05543,0.09977 -0.357947,-0.15376 -0.68055,-0.462111 -1.100708,-0.399092 -0.04099,0.0061 -0.932295,0.131346 -0.958159,0.04989 -0.06018,-0.189531 0.560014,-1.172303 0.657252,-1.384354 0.09526,-0.207744 -0.04641,-0.660999 0.182133,-0.660999 0.149683,0 -0.004,0.299348 -0.0079,0.448981 -0.01054,0.406502 0.02509,0.770536 0.06335,1.172334 0.0053,0.0556 0.0041,0.653678 0.118774,0.623583 0.254225,-0.06673 -0.35568,-0.396175 -0.578062,-0.536281 -0.173649,-0.109402 0.77537,-0.268518 0.578062,-0.212018 -0.415035,0.118848 -0.485996,-0.34435 -0.07507,0.53275"
       id="path1468" />
    <path
       style="fill:none;stroke:#000000;stroke-width:0.264583px;stroke-linecap:butt;stroke-linejoin:miter;stroke-opacity:1"
       d="m 97.895832,18.520833 c 0.08821,0.422619 0.26022,0.811163 0.526439,1.151845 0.157692,0.201799 -0.05615,-0.521033 -0.174212,-0.748298 -0.104677,-0.201492 0.27704,0.83691 0.300916,0.611109 0.04241,-0.40111 -0.373407,-0.877937 -0.372179,-0.860543 0.03334,0.472518 0.485574,0.91043 0.41969,0.91043 -0.434568,0 -0.496933,-1.019304 -0.700654,0.258374"
       id="path1470" />
    <path
       style="fill:none;stroke:#000000;stroke-width:0.264583px;stroke-linecap:butt;stroke-linejoin:miter;stroke-opacity:1"
       d="m 96.572915,26.458333 c 0.722604,0.399889 0.986518,1.066088 1.255456,1.807316 0.06843,0.188605 0.0045,0.66694 0.182132,0.573693 0.0065,-0.0034 0.347305,-1.523156 0.443449,-1.920631 0.05284,-0.218472 0.153001,-0.428625 0.261313,-0.623584 0.02463,-0.04433 0.132011,-0.148287 0.08711,-0.124718 -0.300239,0.157611 -1.794145,0.964596 -2.043036,0.548753 -0.05488,-0.0917 -0.277831,-0.20546 -0.186426,-0.260829 0.126733,-0.07677 1.637488,0.182774 1.762255,0.510265 0.162981,0.427799 -0.245467,0.969695 -0.261316,0.935373 -0.09479,-0.205282 0.158179,-1.248693 -0.292994,-1.159867 -0.27767,0.05467 0.02167,1.130507 0.03959,0.848074 0.02048,-0.322585 -0.03684,-1.268411 -0.134612,-0.960318 -0.09002,0.283654 0.08148,0.785601 0.158371,1.060093 0.01593,0.05685 0.05163,0.217802 0.07126,0.162131 0.08194,-0.232315 0.02376,-0.597191 0.02376,-0.835602 0,0.12056 0,-0.482237 0,-0.361677 0,0.04057 0.08108,0.518001 0.174212,0.448979 0.133818,-0.09918 0.289242,-0.576958 0.158374,-0.473924 -0.111545,0.08782 -0.326924,1.02139 -0.150452,1.12245 0.146192,0.08373 0.283932,-1.035725 0.261315,-0.798187 -0.04521,0.474839 -0.429059,1.336818 -0.221726,1.010205 0.118086,-0.186018 0.194233,-0.475948 0.261316,-0.67347 0.0235,-0.06917 0.08144,-0.280278 0.05543,-0.212016 -0.211122,0.55409 -0.05662,0.951026 -0.581872,0.700408"
       id="path1472" />
    <path
       style="fill:none;stroke:#000000;stroke-width:0.264583px;stroke-linecap:butt;stroke-linejoin:miter;stroke-opacity:1"
       d="m 29.104166,52.916666 c -0.005,-0.108389 -0.0503,-0.222541 -0.01508,-0.325168 0.03387,-0.09866 1.579621,0.157795 1.718366,0.174604 2.022771,0.245052 4.0456,0.0217 6.073666,0.124717 1.087702,0.05526 2.156632,0.124719 3.246678,0.124719 0.354431,0 0.705784,-0.02495 1.061109,-0.02495 0.163655,0 0.640199,-0.06716 0.490964,0 -0.222018,0.09992 -0.427517,-0.02356 -0.669452,-0.07392"
       id="path1474" />
    <path
       style="fill:none;stroke:#000000;stroke-width:0.264583px;stroke-linecap:butt;stroke-linejoin:miter;stroke-opacity:1"
       d="m 39.6875,51.593749 c 0.516993,0.309767 1.107738,0.678342 1.517247,1.147411 0.245901,0.281665 0.65064,0.415986 0.609746,0.424037 -0.01249,0.0024 -2.170573,0.352999 -1.781715,0.723355 0.04483,0.0427 0.03921,-0.117589 0.06335,-0.174604 0.209304,-0.494464 0.363013,-1.020691 0.3801,-1.558957 0.0064,-0.20098 -0.07395,-0.775189 -0.142536,-0.586165 -0.137695,0.379505 0.07935,0.93954 0.09502,1.334463 0.0055,0.13708 -0.121468,0.475334 0,0.411564 0.741005,-0.389011 0.30013,-0.809416 0.221723,-0.685937 -0.136062,0.214283 0.61213,-0.280255 -0.02376,-0.137192 -0.215839,0.04856 -0.03995,0.573984 -0.213805,0.710885 -0.173476,0.13661 0.392893,-0.203023 0.597543,-0.285943"
       id="path1476" />
    <path
       style="fill:none;stroke:#000000;stroke-width:0.264583px;stroke-linecap:butt;stroke-linejoin:miter;stroke-opacity:1"
       d="m 29.104166,52.916666 c 0.312828,-0.265488 0.286377,-0.288033 0.523399,-0.412467 0.204716,-0.107471 0.411975,-0.211555 0.625578,-0.29932 2.154812,-0.885333 -1.251529,0.523353 -1.148977,0.711787 0.09286,0.170617 0.736436,0.198012 0.919335,0.348303 0.284099,0.233452 0.620509,0.405513 0.894818,0.648525 0.04659,0.04128 0.100989,0.193876 0.126698,0.137187 0.07037,-0.155157 0,-0.53534 0,-0.69841 0,-0.371139 0.146251,-1.023472 0.03168,-1.384356 -0.05327,-0.167785 -0.447251,0.334246 -0.475125,0.36168 -0.151019,0.148654 -0.273624,0.320556 -0.419693,0.473922 -0.05349,0.05616 -0.196297,-0.107437 -0.229642,-0.03742 -0.132295,0.277815 0.651642,0.54306 0.649335,0.561226 -0.0081,0.06384 -0.175546,0.105945 -0.158375,0.187074 0.0039,0.01831 0.611172,-1.19625 0.06335,-1.109975 -0.205732,0.0324 -0.237035,0.605349 -0.06335,0.548751 0.188042,-0.06127 0.601393,-0.671568 0.213808,-0.735827 -0.755087,-0.125188 -0.149331,0.866857 -0.118782,0.361675 0.02352,-0.388948 -1.079455,-0.07181 -0.111136,0.33764"
       id="path1478" />
    <path
       style="fill:none;stroke:#000000;stroke-width:0.264583px;stroke-linecap:butt;stroke-linejoin:miter;stroke-opacity:1"
       d="m 89.958332,96.572915 c 2.639171,0.348314 5.409039,0.213628 8.063304,-0.07466 1.06072,-0.115208 2.105134,-0.374145 3.175414,-0.374145 3.10582,0 6.19171,0.561221 9.30451,0.561221 1.32815,0 2.64574,-0.211577 3.96728,-0.236961 1.73021,-0.03323 3.451,0.149863 5.17886,0.174601 2.13033,0.0305 4.30266,-0.12201 6.42208,0.112245 0.97672,0.107955 1.84412,0.09033 2.81907,0 0.32756,-0.03035 0.6541,-0.07395 0.98192,-0.09977 0.049,-0.0039 0.16537,0.0061 0.14254,-0.03742 -0.12485,-0.237863 -0.24976,-0.607274 -0.36426,-0.922904 -0.0561,-0.154553 -0.22965,-0.600916 -0.22965,-0.436507 0,0.444868 1.32426,1.986413 1.88467,1.671204 0.2862,-0.160983 -2.28633,0.215434 -2.11431,0.486394 0.24473,0.385501 0.57245,-1.863619 0.57807,-1.982991 0.008,-0.174731 0.0317,-0.698733 0.0317,-0.523812 0,0.533366 0.0469,1.054256 0.10294,1.583899 0.002,0.02349 0.0482,0.175477 0.0317,0.187077 -0.0757,0.05298 -0.36312,0.03384 -0.27715,0 0.0903,-0.03554 1.09279,0.307361 1.09279,0.236961 0,-0.101362 -0.38555,-0.165966 -0.45137,-0.174604 -0.0334,-0.0044 -0.16628,-0.05 -0.18213,0.02495 -0.0112,0.053 0.1007,0.188889 0.0633,0.149659 -0.17141,-0.180017 -0.16652,-0.132863 -0.53377,-0.324438"
       id="path1480" />
    <path
       style="fill:none;stroke:#000000;stroke-width:0.264583px;stroke-linecap:butt;stroke-linejoin:miter;stroke-opacity:1"
       d="m 75.406249,96.572915 c 0.189881,-0.19949 0.365284,-0.41384 0.569645,-0.598471 0.18391,-0.166153 -0.46999,0.161728 -0.712684,0.212018 -0.560824,0.116224 -1.128739,0.273611 -1.70253,0.311791 -1.898076,0.126309 -3.64308,-0.06053 -5.535189,-0.162129 -3.731792,-0.200381 -7.464989,-0.295997 -11.205004,-0.162131 -1.527199,0.05466 -3.045486,0.587313 -4.592867,0.636053 -1.525622,0.04805 -3.062632,-0.469985 -4.602621,-0.237131 0.300193,-0.05026 0.355151,-0.176466 0.548233,-0.31162 0.149226,-0.104455 0.298271,-0.190957 0.467204,-0.261907 0.08322,-0.03495 0.821525,-0.505241 0.807714,-0.548751 -0.08206,-0.258511 -1.530989,1.147408 -1.559993,1.147392 -0.08812,-5.2e-5 -0.201641,-0.0882 -0.263158,-0.02511 -0.08895,0.09122 -0.06191,0.24785 -0.07735,0.374323 -0.01241,0.101681 0.201505,0.03764 0.300913,0.06235 0.302606,0.07525 0.491963,0.150927 0.688928,0.399094 0.04002,0.05042 0.769197,1.029137 0.776034,1.022676 0.232218,-0.219444 0.150457,-1.708685 0.150457,-2.045352 0,-0.510126 0.133547,-1.470537 -0.0079,-1.321997 -0.30263,0.317761 -0.648039,0.915719 -0.768115,1.334468 -0.06071,0.211729 -0.336787,0.714701 -0.126702,0.648525 0.165277,-0.05206 0.376287,-0.842545 0.411773,-1.010201 0.03044,-0.143809 -0.121863,0.269176 -0.158373,0.411565 -0.06028,0.235102 -0.08822,0.908858 0.03959,0.212017 0.02229,-0.12155 0.08784,-0.709371 -0.134622,-0.748298 -0.173632,-0.03038 0.09609,0.524179 0.118782,0.548752 0.08337,0.09027 0.324671,0.05172 0.324671,0.174604 0,0.330343 -0.01584,0.738199 -0.01584,0.972788 0,0.07483 0,0.299318 0,0.224489 0,-0.259686 0.01663,-1.007699 -0.09502,-0.773241 -0.136105,0.285809 0.22054,0.813812 0.205884,0.69841 -0.02845,-0.224012 -0.237997,-0.519224 -0.348422,-0.69841 -0.221639,-0.359653 -0.409244,0.207389 -0.166293,-0.236964 0.09697,-0.177349 0.246969,-0.419542 0.285071,-0.623583 0.02829,-0.151468 -0.54475,0.222337 -0.451364,0.09977 0.03856,-0.05061 0.413088,-0.466645 0.451364,-0.436507 0.486631,0.383174 0.08604,0.825824 -0.166293,1.134921 -0.03402,0.04167 -0.294899,-0.408575 -0.380097,-0.274378 -0.03818,0.06013 0.444517,1.124874 0.465854,1.173089"
       id="path1493" />
    <path
       style="fill:none;stroke:#000000;stroke-width:0.264583px;stroke-linecap:butt;stroke-linejoin:miter;stroke-opacity:1"
       d="m 138.90625,31.75 c 0.0936,2.711013 -0.25372,5.391496 -0.19817,8.102991 0.0221,1.080281 0.17275,2.143321 0.15837,3.23016 -0.0173,1.307701 -0.12894,2.618222 -0.10294,3.928571 0.0277,1.395531 0.16651,2.79373 0.14253,4.190478 -0.0357,2.077829 -0.36215,5.747158 2.1e-4,7.006133"
       id="path1495" />
    <path
       style="fill:none;stroke:#000000;stroke-width:0.264583px;stroke-linecap:butt;stroke-linejoin:miter;stroke-opacity:1"
       d="m 137.58333,34.395833 c 1.00809,-0.09189 0.67517,-2.079416 1.32271,-2.487284 0.11289,-0.0711 0.56373,1.977712 0.6335,2.207482 0.0665,0.2188 0.18459,0.419341 0.2534,0.636055 0.0202,0.0636 0.10704,0.243406 0.0713,0.187074 -0.28798,-0.453475 -0.67124,-0.692547 -1.13238,-0.910431 -0.46115,-0.217885 -0.91966,0.215601 -0.87898,0.236963 0.32063,0.168336 0.8389,-1.033589 0.91066,-1.259636 0.0477,-0.150212 0.0703,-0.615635 0.10294,-0.461452 0.086,0.406064 -0.27358,1.647111 0.0159,1.920634 0.0841,0.07943 0.0755,-0.739513 0.0475,-0.823129 -0.0234,-0.06999 -0.52865,-0.735827 -0.34051,-0.735827 0.50181,0 0.66349,1.206293 0.55432,1.07256 -0.0751,-0.09201 -0.55679,-0.717056 -0.47513,-0.374148 0.069,0.289902 0.41726,-0.66662 0.19797,-0.498869 -0.14029,0.10732 -0.25788,0.711129 -0.19797,0.661001 0.23173,-0.193895 0.32467,-0.634056 0.32467,-0.922904 0,-0.04289 -0.009,-0.160925 -0.0317,-0.124717 -0.053,0.08342 -0.11833,1.064581 -0.0552,0.353711"
       id="path1497" />
    <path
       style="fill:none;stroke:#000000;stroke-width:0.264583px;stroke-linecap:butt;stroke-linejoin:miter;stroke-opacity:1"
       d="m 138.90625,66.145832 c 0.20054,-0.100636 0.38292,-0.251758 0.60162,-0.30191 0.1702,-0.03903 0.005,0.349213 0.008,0.523809 0.009,0.475776 0.0777,0.945419 0.0633,1.421765 -0.0709,2.344875 0.061,4.66358 0.0238,7.009071 -0.0422,2.660386 -0.32468,5.317977 -0.32468,7.981855 0,1.800802 0.36738,6.988704 -0.37197,8.500827"
       id="path1499" />
    <path
       style="fill:none;stroke:#000000;stroke-width:0.264583px;stroke-linecap:butt;stroke-linejoin:miter;stroke-opacity:1"
       d="m 137.58333,89.958332 c 1.09831,-0.165499 0.76921,0.01947 1.1485,0.616879 0.12633,0.198972 0.21695,0.853091 0.30883,0.636053 0.18159,-0.428908 0.0658,-0.893937 0.32467,-1.346944 0.027,-0.04722 0.41009,-0.482748 0.41178,-0.461449 0.0104,0.130937 -0.57953,1.970527 -0.68893,1.970527 -0.0414,0 0.71022,-1.799773 0.64141,-1.908162 -0.1776,-0.279762 -1.28284,0.535887 -1.28284,0.01246 0,-0.0474 0.48511,0.105421 0.52264,0.112242 0.14809,0.02691 0.60189,-0.01246 0.45137,-0.01246 -0.24291,0 -0.52325,0.123034 -0.76811,0.07483 -0.30538,-0.06012 -0.52264,-0.324414 -0.52264,-0.299316 0,0.293923 0.36977,0.747051 0.51472,0.985264 0.0399,0.06563 0.10335,0.235299 0.15045,0.174604 0.14012,-0.180557 0.10076,-0.874573 0.18214,-0.661004 0.1917,0.503121 0.0587,0.184272 -0.0711,0.106482"
       id="path1501" />
  </g>
</svg>
